<svg width="100" height="100" viewBox="0 0 100 100" fill="none" xmlns="http://www.w3.org/2000/svg">
<path d="M50 100C36.0417 100 24.2188 95.1562 14.5312 85.4688C4.84375 75.7812 0 63.9583 0 50C0 36.0417 4.84375 24.2188 14.5312 14.5312C24.2188 4.84375 36.0417 0 50 0C57.1875 0 64.0625 1.48438 70.625 4.45312C77.1875 7.42188 82.8125 11.6667 87.5 17.1875V0H100V43.75H56.25V31.25H82.5C79.1667 25.4167 74.6094 20.8333 68.8281 17.5C63.0469 14.1667 56.7708 12.5 50 12.5C39.5833 12.5 30.7292 16.1458 23.4375 23.4375C16.1458 30.7292 12.5 39.5833 12.5 50C12.5 60.4167 16.1458 69.2708 23.4375 76.5625C30.7292 83.8542 39.5833 87.5 50 87.5C58.0208 87.5 65.2604 85.2083 71.7188 80.625C78.1771 76.0417 82.7083 70 85.3125 62.5H98.4375C95.5208 73.5417 89.5833 82.5521 80.625 89.5312C71.6667 96.5104 61.4583 100 50 100Z" fill="white"/>
</svg>
